<svg width="20" height="22" viewBox="0 0 20 22" fill="none" xmlns="http://www.w3.org/2000/svg">
<path d="M19.6025 18.5625L16.1865 21.9678L15.2197 21.001L16.9707 19.25H10.375V17.875H16.9707L15.2197 16.124L16.1865 15.1572L19.6025 18.5625ZM12.8994 20.625L14.2744 22H0.75V2.75H6.25C6.25 2.37044 6.32161 2.01595 6.46484 1.68652C6.60807 1.3571 6.80501 1.06348 7.05566 0.805664C7.30631 0.547852 7.59635 0.350911 7.92578 0.214844C8.25521 0.078776 8.61328 0.00716146 9 0C9.37956 0 9.73405 0.0716146 10.0635 0.214844C10.3929 0.358073 10.6865 0.555013 10.9443 0.805664C11.2021 1.05632 11.3991 1.34635 11.5352 1.67578C11.6712 2.00521 11.7428 2.36328 11.75 2.75H17.25V14.2764L15.875 12.9014V4.125H14.5V6.875H3.5V4.125H2.125V20.625H12.8994ZM4.875 4.125V5.5H13.125V4.125H10.375V2.75C10.375 2.55664 10.3392 2.3776 10.2676 2.21289C10.196 2.04818 10.0993 1.90495 9.97754 1.7832C9.85579 1.66146 9.70898 1.5612 9.53711 1.48242C9.36523 1.40365 9.1862 1.36784 9 1.375C8.80664 1.375 8.6276 1.41081 8.46289 1.48242C8.29818 1.55404 8.15495 1.65072 8.0332 1.77246C7.91146 1.89421 7.8112 2.04102 7.73242 2.21289C7.65365 2.38477 7.61784 2.5638 7.625 2.75V4.125H4.875Z" fill="white"/>
</svg>
