<svg width="27" height="27" viewBox="0 0 27 27" fill="none" xmlns="http://www.w3.org/2000/svg">
<path fill-rule="evenodd" clip-rule="evenodd" d="M11.1111 25.0288C11.1111 24.6444 10.9648 24.2758 10.7043 24.004C10.4438 23.7322 10.0906 23.5795 9.72222 23.5795H2.77778V3.28966H9.72222C10.0906 3.28966 10.4438 3.13697 10.7043 2.86518C10.9648 2.59339 11.1111 2.22476 11.1111 1.84039C11.1111 1.45602 10.9648 1.08739 10.7043 0.815596C10.4438 0.543804 10.0906 0.391113 9.72222 0.391113H2.77778C2.04107 0.391113 1.33453 0.696495 0.813592 1.24008C0.292658 1.78366 0 2.52092 0 3.28966V23.5795C0 24.3483 0.292658 25.0855 0.813592 25.6291C1.33453 26.1727 2.04107 26.4781 2.77778 26.4781H9.72222C10.0906 26.4781 10.4438 26.3254 10.7043 26.0536C10.9648 25.7818 11.1111 25.4132 11.1111 25.0288Z" fill="#233873"/>
<path d="M25.9916 14.4491C26.2456 14.1796 26.3882 13.8169 26.3888 13.4389V13.4302C26.388 13.0473 26.2417 12.6804 25.9818 12.41L20.4263 6.61286C20.2982 6.47444 20.1449 6.36403 19.9754 6.28807C19.806 6.21212 19.6237 6.17214 19.4393 6.17046C19.2549 6.16879 19.072 6.20546 18.9013 6.27833C18.7307 6.3512 18.5756 6.45882 18.4452 6.59489C18.3148 6.73097 18.2116 6.89278 18.1418 7.07089C18.072 7.249 18.0368 7.43985 18.0384 7.63228C18.04 7.82471 18.0783 8.01489 18.1511 8.1917C18.2239 8.36852 18.3297 8.52844 18.4624 8.66213L21.6471 11.9853H8.33322C7.96487 11.9853 7.6116 12.138 7.35113 12.4098C7.09067 12.6816 6.94434 13.0502 6.94434 13.4346C6.94434 13.819 7.09067 14.1876 7.35113 14.4594C7.6116 14.7312 7.96487 14.8839 8.33322 14.8839H21.6471L18.4624 18.2071C18.2094 18.4804 18.0694 18.8465 18.0726 19.2265C18.0757 19.6065 18.2218 19.97 18.4793 20.2387C18.7368 20.5074 19.0852 20.6598 19.4493 20.6631C19.8135 20.6664 20.1643 20.5203 20.4263 20.2563L25.9818 14.4592L25.9916 14.4491Z" fill="#233873"/>
</svg>
