<svg width="18" height="22" viewBox="0 0 18 22" fill="none" xmlns="http://www.w3.org/2000/svg">
<path d="M9.40239 12.8343L14.9721 12.8353C15.3958 12.8353 15.8022 13.0526 16.1019 13.4394C16.4015 13.8261 16.5699 14.3508 16.5699 14.8978V15.7273C16.5699 16.2227 16.4869 16.7122 16.3267 17.1623C16.1665 17.6124 15.9329 18.0126 15.6417 18.3353C14.5296 19.5682 12.9389 20.1704 10.8866 20.1704H10.7595C10.8413 19.957 10.8853 19.7228 10.8885 19.4847C10.8917 19.2466 10.854 19.0106 10.7779 18.7936L10.8866 18.7954C12.7046 18.7954 14.0524 18.2858 14.9479 17.293C15.1226 17.0994 15.2627 16.8593 15.3588 16.5892C15.4549 16.3191 15.5047 16.0255 15.5047 15.7283V14.8987C15.5047 14.7163 15.4486 14.5415 15.3487 14.4125C15.2488 14.2836 15.1133 14.2112 14.9721 14.2112H9.44997C9.48237 13.7519 9.46636 13.289 9.40239 12.8353V12.8343ZM5.56051 9.62693C6.16758 9.62696 6.76209 9.8502 7.27445 10.2705C7.78681 10.6908 8.19582 11.2908 8.4536 12.0003C8.71139 12.7098 8.80729 13.4993 8.73008 14.2766C8.65286 15.0538 8.40573 15.7866 8.01761 16.3892L10.0223 18.9687C10.117 19.0914 10.1723 19.2556 10.1772 19.4287C10.1821 19.6017 10.1363 19.7707 10.0488 19.902C9.96137 20.0333 9.83877 20.1172 9.7055 20.1369C9.57223 20.1565 9.43812 20.1106 9.32996 20.0082L9.26959 19.9422L7.20804 17.2875C6.78593 17.615 6.31089 17.8121 5.82001 17.8634C5.32914 17.9148 4.83571 17.819 4.37825 17.5836C3.92079 17.3481 3.51168 16.9793 3.18286 16.5061C2.85403 16.0328 2.6144 15.4679 2.48266 14.8553C2.35093 14.2428 2.33065 13.5992 2.42342 12.9749C2.51618 12.3506 2.71949 11.7624 3.01745 11.2562C3.31541 10.7501 3.69998 10.3397 4.14111 10.057C4.58225 9.77439 5.06802 9.6272 5.56051 9.62693ZM5.56051 11.0019C4.99548 11.0019 4.4536 11.2917 4.05406 11.8074C3.65453 12.3231 3.43007 13.0226 3.43007 13.7519C3.43007 14.4813 3.65453 15.1807 4.05406 15.6965C4.4536 16.2122 4.99548 16.5019 5.56051 16.5019C6.12553 16.5019 6.66742 16.2122 7.06695 15.6965C7.46649 15.1807 7.69094 14.4813 7.69094 13.7519C7.69094 13.0226 7.46649 12.3231 7.06695 11.8074C6.66742 11.2917 6.12553 11.0019 5.56051 11.0019ZM10.8866 1.83984C11.3529 1.83984 11.8146 1.95839 12.2454 2.18873C12.6762 2.41906 13.0676 2.75667 13.3973 3.18227C13.7271 3.60787 13.9886 4.11314 14.167 4.66921C14.3455 5.22529 14.4373 5.82129 14.4373 6.42318C14.4373 7.02507 14.3455 7.62107 14.167 8.17714C13.9886 8.73322 13.7271 9.23848 13.3973 9.66408C13.0676 10.0897 12.6762 10.4273 12.2454 10.6576C11.8146 10.888 11.3529 11.0065 10.8866 11.0065C9.94488 11.0065 9.04174 10.5236 8.37585 9.66408C7.70996 8.80454 7.33587 7.63875 7.33587 6.42318C7.33587 5.2076 7.70996 4.04181 8.37585 3.18227C9.04174 2.32273 9.94488 1.83984 10.8866 1.83984ZM10.8866 3.21484C10.5602 3.21484 10.237 3.29783 9.93543 3.45906C9.63388 3.6203 9.35988 3.85662 9.12908 4.15454C8.89828 4.45246 8.71519 4.80615 8.59029 5.1954C8.46538 5.58465 8.40109 6.00185 8.40109 6.42318C8.40109 6.8445 8.46538 7.2617 8.59029 7.65095C8.71519 8.04021 8.89828 8.39389 9.12908 8.69181C9.35988 8.98973 9.63388 9.22606 9.93543 9.38729C10.237 9.54852 10.5602 9.63151 10.8866 9.63151C11.5458 9.63151 12.178 9.29349 12.6441 8.69181C13.1102 8.09013 13.3721 7.27408 13.3721 6.42318C13.3721 5.57227 13.1102 4.75622 12.6441 4.15454C12.178 3.55286 11.5458 3.21484 10.8866 3.21484Z" fill="black"/>
</svg>
