<svg width="28" height="21" viewBox="0 0 28 21" fill="none" xmlns="http://www.w3.org/2000/svg">
<g id="Group 1289">
<path id="Vector" d="M14.3928 2.91885C16.2401 2.91885 17.7255 4.4246 17.7255 6.27561C17.7255 8.08827 16.2972 9.56525 14.5166 9.63238C14.4343 9.62279 14.3512 9.62279 14.269 9.63238M16.2305 18.2641C16.9161 18.1202 17.5636 17.8421 18.0969 17.4297C19.5823 16.3076 19.5823 14.4565 18.0969 13.3344C17.5731 12.9316 16.9352 12.6631 16.2591 12.5096M23.672 2.39615C25.2527 4.45816 25.2527 7.13878 23.672 9.2008M25.3289 1.00069C27.557 3.90669 27.557 7.68546 25.3289 10.5915M21.9343 3.29768C23.096 4.80823 23.096 6.77913 21.9343 8.28968M20.1917 4.54928C20.7726 5.30695 20.7726 6.29 20.1917 7.04767M7.48928 9.5077C7.39406 9.49811 7.2798 9.49811 7.17505 9.5077C6.08212 9.47033 5.04653 9.00595 4.28761 8.21291C3.52869 7.41987 3.10603 6.36045 3.10914 5.25899C3.10914 2.90926 4.9945 1.00069 7.33693 1.00069C8.45695 0.980344 9.53912 1.40896 10.3454 2.19226C11.1516 2.97556 11.6159 4.04937 11.6361 5.17747C11.6563 6.30557 11.2308 7.39555 10.4531 8.20763C9.67542 9.0197 8.6093 9.48735 7.48928 9.5077ZM2.72825 13.0467C0.423916 14.6004 0.423916 17.1324 2.72825 18.6765C5.34682 20.4412 9.64127 20.4412 12.2598 18.6765C14.5642 17.1228 14.5642 14.5908 12.2598 13.0467C9.65079 11.2916 5.35634 11.2916 2.72825 13.0467Z" stroke="#757575" stroke-width="1.7" stroke-linecap="round" stroke-linejoin="round"/>
</g>
</svg>
